HIERARCHY
ROOT joint_Root
{
	OFFSET 0.0 0.0 0.0
	CHANNELS 6 Xposition Yposition Zposition Zrotation Xrotation Yrotation 
	JOINT Hips
	{
		OFFSET 4.5925 91.4895 -427.239
		CHANNELS 6 Xposition Yposition Zposition Zrotation Xrotation Yrotation 
		JOINT Spine
		{
			OFFSET 15.7357 0.0 0.0
			CHANNELS 6 Xposition Yposition Zposition Zrotation Xrotation Yrotation 
			JOINT Chest
			{
				OFFSET 8.98455 -0.406207 0.0
				CHANNELS 6 Xposition Yposition Zposition Zrotation Xrotation Yrotation 
				JOINT Neck
				{
					OFFSET 16.3773 0.0 0.0
					CHANNELS 6 Xposition Yposition Zposition Zrotation Xrotation Yrotation 
					JOINT Head
					{
						OFFSET 6.45672 0.0 0.0
						CHANNELS 6 Xposition Yposition Zposition Zrotation Xrotation Yrotation 
						End Site
						{
							OFFSET 0.0 0.0 0.0
						}
					}
				}
				JOINT Shoulder_L
				{
					OFFSET 12.9942 -0.242716 4.98039
					CHANNELS 6 Xposition Yposition Zposition Zrotation Xrotation Yrotation 
					JOINT UpperArm_L
					{
						OFFSET 5.34809 0.0 0.0
						CHANNELS 6 Xposition Yposition Zposition Zrotation Xrotation Yrotation 
						JOINT LowerArm_L
						{
							OFFSET 24.3286 1.87007e-05 0.0
							CHANNELS 6 Xposition Yposition Zposition Zrotation Xrotation Yrotation 
							JOINT Hand_L
							{
								OFFSET 22.2916 0.0 0.0
								CHANNELS 6 Xposition Yposition Zposition Zrotation Xrotation Yrotation 
								End Site
								{
									OFFSET 0.0 0.0 0.0
								}
							}
						}
					}
				}
				JOINT Shoulder_R
				{
					OFFSET 12.9945 -0.242716 -4.98039
					CHANNELS 6 Xposition Yposition Zposition Zrotation Xrotation Yrotation 
					JOINT UpperArm_R
					{
						OFFSET -5.34813 0.0 0.0
						CHANNELS 6 Xposition Yposition Zposition Zrotation Xrotation Yrotation 
						JOINT LowerArm_R
						{
							OFFSET -24.3289 0.000322201 0.0
							CHANNELS 6 Xposition Yposition Zposition Zrotation Xrotation Yrotation 
							JOINT Hand_R
							{
								OFFSET -22.2915 -0.000108084 0.0
								CHANNELS 6 Xposition Yposition Zposition Zrotation Xrotation Yrotation 
								End Site
								{
									OFFSET 0.0 0.0 0.0
								}
							}
						}
					}
				}
			}
		}
		JOINT UpperLeg_L
		{
			OFFSET -2.19248 -6.46944 0.0
			CHANNELS 6 Xposition Yposition Zposition Zrotation Xrotation Yrotation 
			JOINT LowerLeg_L
			{
				OFFSET 39.0811 0.0 -1.23785e-05
				CHANNELS 6 Xposition Yposition Zposition Zrotation Xrotation Yrotation 
				JOINT Foot_L
				{
					OFFSET 40.9854 0.0 -1.26872e-05
					CHANNELS 6 Xposition Yposition Zposition Zrotation Xrotation Yrotation 
					JOINT Toes_L
					{
						OFFSET 11.7543 0.0 0.0
						CHANNELS 6 Xposition Yposition Zposition Zrotation Xrotation Yrotation 
						End Site
						{
							OFFSET 0.0 0.0 0.0
						}
					}
				}
			}
		}
		JOINT UpperLeg_R
		{
			OFFSET -2.19251 6.46944 0.0
			CHANNELS 6 Xposition Yposition Zposition Zrotation Xrotation Yrotation 
			JOINT LowerLeg_R
			{
				OFFSET -39.0811 -0.00228153 -0.0401928
				CHANNELS 6 Xposition Yposition Zposition Zrotation Xrotation Yrotation 
				JOINT Foot_R
				{
					OFFSET -40.9854 0.0 0.0
					CHANNELS 6 Xposition Yposition Zposition Zrotation Xrotation Yrotation 
					JOINT Toes_R
					{
						OFFSET -11.7543 0.0 0.0
						CHANNELS 6 Xposition Yposition Zposition Zrotation Xrotation Yrotation 
						End Site
						{
							OFFSET 0.0 0.0 0.0
						}
					}
				}
			}
		}
	}
}
MOTION
Frames:	4
Frame Time:	0.0333333
0.000000 0.000000 0.000000 0.000000 0.000000 -0.000000 1.791060 85.309000 -55.198000 91.777000 -5.328930 3.903560 15.735700 0.000005 -0.000001 100.900000 82.679000 -102.693000 8.984550 -0.406207 -0.000000 6.663890 2.777250 -3.744330 16.377300 -0.000001 -0.000001 0.300679 -3.992230 1.620740 6.456720 -0.000001 -0.000000 -1.145770 -6.833360 3.620610 12.994200 -0.242716 4.980390 -93.231700 7.831570 -67.492100 5.348090 -0.000007 -0.000001 -64.619000 19.033000 -5.199450 24.328600 0.000019 0.000005 -4.567070 0.062781 -90.786800 22.291600 -0.000001 0.000005 12.456100 5.515080 -7.153690 12.994500 -0.242716 -4.980390 88.329100 10.502300 -80.907700 -5.348130 -0.000001 -0.000004 -67.175900 35.087000 -3.399070 -24.328900 0.000322 -0.000009 -16.570200 -8.023820 -64.868100 -22.291500 -0.000108 -0.000004 27.025700 5.632540 -13.521600 -2.192480 -6.469440 -0.000000 174.736000 -10.882600 -26.696000 39.081100 -0.000007 -0.000012 -0.366422 0.282626 52.357400 40.985400 -0.000006 -0.000013 3.695620 -4.502960 -72.953000 11.754300 -0.000000 0.000003 -0.000187 -0.001748 -16.643600 -2.192510 6.469440 -0.000001 169.080000 9.924050 173.439000 -39.081100 -0.002282 -0.040193 0.309093 -0.103304 71.345600 -40.985400 0.000008 0.000006 5.423940 -0.099767 -29.456000 -11.754300 -0.000006 -0.000006 -0.021598 -0.175986 -23.766300
0.000000 0.000000 0.000000 0.000000 0.000000 -0.000000 1.910920 86.160200 -50.740200 91.734100 -1.012840 3.907190 15.735700 0.000005 -0.000001 91.112000 82.771600 -92.629500 8.984550 -0.406207 -0.000000 6.693850 0.293826 -3.048750 16.377300 -0.000001 -0.000001 0.672167 -5.009750 0.365220 6.456720 -0.000001 -0.000000 0.649370 -6.767070 4.167960 12.994200 -0.242716 4.980390 -92.182400 6.073940 -70.195000 5.348090 -0.000007 -0.000001 -65.473300 23.774900 -21.302300 24.328600 0.000019 0.000005 1.125520 -0.108706 -95.499400 22.291600 -0.000001 0.000005 11.987700 5.521100 -7.409080 12.994500 -0.242716 -4.980390 88.026400 10.829600 -79.607000 -5.348130 -0.000001 -0.000004 -68.584300 34.972300 9.932950 -24.328900 0.000322 -0.000009 -24.999300 -12.368500 -65.325500 -22.291500 -0.000108 -0.000004 26.162600 5.646820 -14.720900 -2.192480 -6.469440 -0.000000 174.901000 -8.652960 -21.795100 39.081100 -0.000007 -0.000012 -0.331976 0.279603 49.895400 40.985400 -0.000006 -0.000013 4.165480 -2.708710 -75.065900 11.754300 -0.000000 0.000003 -0.000194 -0.001807 -16.645800 -2.192510 6.469440 -0.000001 171.496000 10.069200 166.504000 -39.081100 -0.002282 -0.040193 0.219302 -0.040095 79.503900 -40.985400 0.000008 0.000006 7.201350 -2.051520 -36.331900 -11.754300 -0.000006 -0.000006 -0.020895 -0.172196 -23.610100
0.000000 0.000000 0.000000 0.000000 0.000000 -0.000000 1.809000 87.754800 -46.289600 90.927300 3.523770 3.689830 15.735700 0.000005 -0.000001 74.956100 82.539900 -75.706500 8.984550 -0.406207 -0.000000 6.629480 -3.853070 -1.276300 16.377300 -0.000001 -0.000001 1.349990 -4.971360 -0.553669 6.456720 -0.000001 -0.000000 0.733039 -4.403100 2.206710 12.994200 -0.242716 4.980390 -90.708600 2.174050 -71.942900 5.348090 -0.000007 -0.000001 -64.564200 25.980400 -33.839400 24.328600 0.000019 0.000005 -0.965251 0.212410 -102.376000 22.291600 -0.000001 0.000005 11.528700 5.523980 -7.533130 12.994500 -0.242716 -4.980390 88.021600 8.609070 -77.005200 -5.348130 -0.000001 -0.000004 -69.687700 38.815700 20.159500 -24.328900 0.000322 -0.000009 -24.007200 -9.398930 -69.863400 -22.291500 -0.000108 -0.000004 23.856100 5.652670 -15.274700 -2.192480 -6.469440 -0.000000 176.372000 -6.962780 -15.596700 39.081100 -0.000007 -0.000012 -0.253937 0.261333 44.178200 40.985400 -0.000006 -0.000013 4.679500 0.277457 -75.534400 11.754300 -0.000000 0.000003 -0.000141 -0.001376 -16.629900 -2.192510 6.469440 -0.000001 174.213000 10.955100 160.453000 -39.081100 -0.002282 -0.040193 0.175114 -0.023914 82.101800 -40.985400 0.000008 0.000006 6.899770 -2.002510 -42.273200 -11.754300 -0.000006 -0.000006 -0.021417 -0.175012 -23.726200
0.000000 0.000000 0.000000 0.000000 0.000000 -0.000000 1.564900 89.640400 -41.644100 89.672200 6.115890 3.650570 15.735700 0.000005 -0.000001 62.513200 81.930100 -62.375600 8.984550 -0.406207 -0.000000 6.603350 -7.427530 0.704234 16.377300 -0.000001 -0.000001 2.452760 -4.551720 -1.050490 6.456720 -0.000001 -0.000000 0.746605 -1.492230 0.150702 12.994200 -0.242716 4.980390 -89.600300 -1.278270 -72.631600 5.348090 -0.000007 -0.000001 -62.319400 24.551500 -43.087500 24.328600 0.000019 0.000005 -4.298840 1.544620 -109.724000 22.291600 -0.000001 0.000005 10.331500 5.523870 -7.527470 12.994500 -0.242716 -4.980390 88.524900 5.419090 -74.746100 -5.348130 -0.000001 -0.000004 -70.923900 42.375000 27.732200 -24.328900 0.000322 -0.000009 -21.616000 -6.202060 -74.748500 -22.291500 -0.000108 -0.000004 20.377200 5.652690 -15.277500 -2.192480 -6.469440 -0.000000 178.697000 -5.993920 -7.882260 39.081100 -0.000007 -0.000012 -0.187869 0.263827 35.454700 40.985400 -0.000006 -0.000013 4.355220 2.475570 -74.587300 11.754300 -0.000000 0.000003 -0.000076 -0.000817 -16.609100 -2.192510 6.469440 -0.000001 177.275000 10.017400 155.744000 -39.081100 -0.002282 -0.040193 0.114529 -0.020376 79.657100 -40.985400 0.000008 0.000006 6.301360 -3.243930 -46.496900 -11.754300 -0.000006 -0.000006 -0.020228 -0.168549 -23.459800
